<svg width="21" height="22" viewBox="0 0 21 22" fill="none" xmlns="http://www.w3.org/2000/svg">
<path d="M14 21.027V18.157C14.0375 17.6802 13.9731 17.2008 13.811 16.7508C13.6489 16.3008 13.3929 15.8904 13.06 15.547C16.2 15.197 19.5 14.007 19.5 8.547C19.4997 7.15083 18.9627 5.8082 18 4.797C18.4559 3.57551 18.4236 2.22535 17.91 1.027C17.91 1.027 16.73 0.676999 14 2.507C11.708 1.88582 9.29199 1.88582 7 2.507C4.27 0.676999 3.09 1.027 3.09 1.027C2.57638 2.22535 2.54414 3.57551 3 4.797C2.03013 5.8157 1.49252 7.17046 1.5 8.577C1.5 13.997 4.8 15.187 7.94 15.577C7.611 15.917 7.35726 16.3224 7.19531 16.7669C7.03335 17.2114 6.96681 17.6851 7 18.157V21.027" stroke="#2A2941" stroke-width="1.5" stroke-linecap="round" stroke-linejoin="round"/>
</svg>
